<svg width="200" height="409" viewBox="0 0 200 409" fill="none" xmlns="http://www.w3.org/2000/svg">
<path fillRule="evenodd" clipRule="evenodd" d="M190.457 28.3252C190.457 17.6873 181.821 9.07107 171.159 9.07107H154.033C151.901 9.07107 150.173 10.7951 150.173 12.9219V13.4032C150.173 19.2757 145.445 23.993 139.56 23.993H60.4402C54.5545 23.993 49.8266 19.2757 49.8266 13.4032V12.9219C49.8266 10.7951 48.0986 9.07107 45.9671 9.07107H28.8406C18.1788 9.07107 9.54322 17.6873 9.54322 28.3252V380.675C9.54322 391.313 18.1788 399.929 28.8406 399.929H171.159C181.821 399.929 190.457 391.313 190.457 380.675V28.3252ZM28.8406 0.406738H171.159C186.597 0.406738 199.14 12.9219 199.14 28.3252V380.675C199.14 396.078 186.597 408.593 171.159 408.593H28.8406C13.4027 408.593 0.859375 396.078 0.859375 380.675V28.3252C0.859375 12.9219 13.4027 0.406738 28.8406 0.406738Z" fill="#333333"/>
<path opacity="0.6" fillRule="evenodd" clipRule="evenodd" d="M67.918 393.671C67.918 393.007 68.458 392.468 69.1241 392.468H131.358C132.024 392.468 132.564 393.007 132.564 393.671C132.564 394.336 132.024 394.875 131.358 394.875H69.1241C68.458 394.875 67.918 394.336 67.918 393.671Z" fill="#333333"/>
<path d="M125.087 13.4032C125.087 15.264 123.575 16.7726 121.709 16.7726C119.844 16.7726 118.332 15.264 118.332 13.4032C118.332 11.5423 119.844 10.0337 121.709 10.0337C123.575 10.0337 125.087 11.5423 125.087 13.4032Z" fill="#4F4F4F"/>
<path d="M89.1451 11.9591C88.3457 11.9591 87.6978 12.6056 87.6978 13.4032C87.6978 14.2007 88.3457 14.8472 89.1451 14.8472H110.372C111.172 14.8472 111.82 14.2007 111.82 13.4032C111.82 12.6056 111.172 11.9591 110.372 11.9591H89.1451Z" fill="#4F4F4F"/>
</svg>
