<?xml version="1.0" standalone="no"?>
<!DOCTYPE svg PUBLIC "-//W3C//DTD SVG 20010904//EN"
 "http://www.w3.org/TR/2001/REC-SVG-20010904/DTD/svg10.dtd">
<svg version="1.0" xmlns="http://www.w3.org/2000/svg"
 width="1921.000000pt" height="1232.000000pt" viewBox="0 0 1921.000000 1232.000000"
 preserveAspectRatio="xMidYMid meet">

<g transform="translate(0.000000,1232.000000) scale(0.100000,-0.100000)"
fill="#000000" stroke="none">
<path d="M6932 9238 c-328 -326 -807 -802 -1064 -1058 l-468 -465 33 -35 c18
-19 128 -136 244 -260 485 -518 722 -716 1038 -866 202 -95 361 -141 591 -169
131 -17 490 -15 3004 10 278 2 618 5 755 6 l250 0 -92 20 c-226 47 -427 150
-662 339 -115 93 -246 225 -1956 1980 -115 118 -399 408 -630 643 -231 236
-421 433 -423 438 -2 5 -8 9 -13 9 -5 0 -278 -266 -607 -592z m952 -353 l148
-155 -24 -28 c-13 -15 -83 -85 -156 -157 l-133 -130 -135 135 c-74 74 -143
147 -154 161 l-20 27 153 151 c83 83 157 151 162 151 6 0 77 -70 159 -155z
m-658 -625 c82 -83 150 -154 152 -158 1 -5 -35 -43 -80 -86 -46 -43 -117 -112
-158 -153 l-76 -74 -149 151 c-83 83 -151 156 -153 163 -3 13 290 307 306 307
4 0 76 -68 158 -150z m-626 -655 l155 -155 -55 -53 c-30 -29 -103 -99 -162
-156 l-106 -102 -156 158 -156 158 155 153 c85 83 158 152 162 152 5 0 78 -70
163 -155z"/>
<path d="M10525 8025 l-450 -444 45 -44 c419 -408 634 -590 826 -700 402 -229
853 -220 1216 24 40 27 346 324 848 823 432 429 787 782 789 783 2 2 -632 3
-1410 3 l-1414 -1 -450 -444z"/>
<path d="M6600 5315 c-91 -18 -201 -58 -279 -101 -80 -45 -212 -175 -260 -257
-71 -121 -121 -317 -121 -475 0 -405 201 -685 558 -779 125 -33 338 -38 442
-10 150 40 283 135 335 237 48 95 82 250 55 250 -5 0 -12 -12 -16 -27 -28
-127 -78 -227 -145 -287 -101 -91 -204 -121 -381 -113 -129 5 -182 21 -275 80
-127 79 -219 220 -265 402 -19 76 -22 117 -22 265 -1 151 3 187 23 265 51 198
156 364 288 456 115 80 309 96 432 36 61 -29 200 -169 231 -232 13 -27 40 -92
60 -144 59 -156 64 -143 57 149 -6 259 -13 297 -42 255 -38 -54 -54 -56 -143
-25 -31 12 -102 32 -157 45 -114 28 -264 32 -375 10z"/>
<path d="M8020 5281 c0 -5 23 -14 50 -20 66 -14 102 -33 133 -70 52 -62 52
-62 52 -696 0 -581 0 -591 -21 -636 -32 -69 -110 -119 -185 -119 -19 0 -29 -5
-29 -15 0 -13 47 -15 365 -15 302 0 365 2 365 14 0 8 -17 16 -45 19 -58 8
-118 39 -143 74 -47 67 -47 74 -47 688 0 559 1 582 20 630 26 63 85 109 160
125 30 6 55 16 55 21 0 5 -147 9 -365 9 -215 0 -365 -4 -365 -9z"/>
<path d="M9410 5281 c0 -4 25 -13 55 -19 76 -16 128 -51 155 -107 18 -38 25
-75 32 -189 13 -192 4 -1006 -12 -1069 -22 -89 -110 -157 -202 -157 -18 0 -28
-5 -28 -15 0 -13 34 -15 265 -13 151 2 266 7 268 12 1 5 -23 14 -53 20 -110
22 -162 77 -180 189 -11 72 -14 1137 -2 1136 4 0 52 -57 107 -127 55 -70 298
-376 539 -680 392 -493 442 -552 467 -552 l28 0 3 703 3 702 24 42 c30 53 86
91 153 103 28 6 52 10 54 10 2 0 4 5 4 10 0 6 -95 10 -265 10 -167 0 -265 -4
-265 -10 0 -5 12 -12 28 -15 80 -17 110 -30 142 -64 63 -66 63 -66 67 -603 3
-303 1 -488 -5 -488 -5 0 -16 9 -23 19 -8 11 -108 140 -224 287 -115 147 -317
404 -448 571 l-238 303 -224 0 c-124 0 -225 -4 -225 -9z"/>
<path d="M11750 5280 c0 -5 17 -12 38 -15 91 -15 156 -65 183 -142 11 -30 14
-157 14 -628 0 -581 0 -591 -21 -636 -29 -62 -78 -98 -153 -112 -37 -7 -61
-17 -61 -24 0 -10 138 -13 688 -13 l689 0 6 107 c10 159 9 353 -3 353 -5 0
-14 -19 -20 -42 -34 -130 -66 -195 -129 -258 -88 -88 -183 -120 -356 -120
-199 0 -296 49 -350 176 -20 47 -34 227 -35 443 l0 153 103 -4 c85 -3 109 -8
147 -28 61 -34 99 -93 124 -192 12 -46 26 -82 31 -81 6 2 11 123 13 314 2 239
0 310 -10 307 -6 -2 -19 -38 -28 -80 -31 -144 -92 -188 -273 -196 l-107 -5 2
349 3 349 155 3 c259 5 378 -21 467 -101 47 -43 88 -114 106 -188 8 -29 20
-55 27 -57 9 -3 11 29 6 149 -4 85 -9 171 -12 192 l-6 37 -619 0 c-386 0 -619
-4 -619 -10z"/>
<path d="M13771 3724 c0 -11 3 -14 6 -6 3 7 2 16 -1 19 -3 4 -6 -2 -5 -13z"/>
</g>
</svg>
